# xmcd
#
# Track frame offsets: 
#        150
#        24517
#        49615
#        65012
#        77445
#        94332
#        117875
#        130772
#        144620
#        159842
#        174707
#        194420
#        219642
#        236920
#        250115
#        270005
#        285507
#        310447
#        326512
#
# Disc length: 4679 seconds
#
# Revision: 5
# Processed by: cddbd v1.5.2PL0 Copyright (c) Steve Scherf et al.
# Submitted via: ExactAudioCopyFreeDBPlugin 1.0
#
DISCID=0b124513
DTITLE=Various Artist - James Brown's Original Funky Divas
DYEAR=1998
DGENRE=Soul
TTITLE0=Vicki Anderson - The Message from the Soul Sisters (Parts 1 and 
TTITLE0=2)
TTITLE1=Vicki Anderson - Super Good (Answer to Super Bad) Parts 1 and 2
TTITLE2=Vicki Anderson - I'm Too Tough for Mr. Big Stuff (Hot Pants)
TTITLE3=Vicki Anderson - Don't Throw Your Love in the Garbage Can
TTITLE4=Vicki Anderson and Bobby Byrd - You're Welcome, Stop on By
TTITLE5=Kay Robinson - The Lord Will Make A Way Somehow (Parts 1 and 2)
TTITLE6=Shirley Jean and The Relations - People Make the World a Better 
TTITLE6=Place
TTITLE7=Lyn Collins - Wheel of Life
TTITLE8=Lyn Collins - Think (About It)
TTITLE9=Lyn Collins - Me and My Baby Got a Good Thing Going
TTITLE10=Lyn Collins - Mama Feelgood (previously unreleased long versi
TTITLE10=on)
TTITLE11=Lyn Collins - Take Me, Just as I Am (previously unreleased lo
TTITLE11=ng version)
TTITLE12=Lyn Collins - Don't Make Me Over
TTITLE13=Lyn Collins - What My Baby Needs Now is a Little More Lovin'
TTITLE14=Lyn Collins - We Want to Parrty, Parrty, Parrty (Parts 1 and 2)
TTITLE15=Lyn Collins - Rock Me Again and Again and Again and  Again and Again 
TTITLE15=& Again (6 Times)
TTITLE16=Lyn Collins - You Can't Love Me, If You Don't Respect Me (pro
TTITLE16=mo only long version)
TTITLE17=Lyn Collins - Put It on the Line
TTITLE18=Martha High and James Brown - Summertime
EXTD=
EXTT0=YEAR: 1970
EXTT1=YEAR: 1970
EXTT2=YEAR: 1971
EXTT3=YEAR: 1972
EXTT4=YEAR: 1975
EXTT5=YEAR: 1970
EXTT6=YEAR: 1971
EXTT7=YEAR: 1971
EXTT8=YEAR: 1972
EXTT9=YEAR: 1972
EXTT10=YEAR: 1972
EXTT11=YEAR: 1973
EXTT12=YEAR: 1973
EXTT13=YEAR: 1972
EXTT14=YEAR: 1973
EXTT15=YEAR: 1974
EXTT16=YEAR: 1974
EXTT17=YEAR: 1974
EXTT18=YEAR: 1977
PLAYORDER=
